LG_walk_Faster04																		
version=1																		
nRows=54																		
nColumns=19																		
inDegrees=yes																		
endheader																		
time	ground_force2_vx	ground_force2_vy	ground_force2_vz	ground_force2_px	ground_force2_py	ground_force2_pz	ground_torque2_x	ground_torque2_y	ground_torque2_z	ground_force1_vx	ground_force1_vy	ground_force1_vz	ground_force1_px	ground_force1_py	ground_force1_pz	ground_torque1_x	ground_torque1_y	ground_torque1_z
3.917	0	0	0	0.2	0	-0.3	0	0	0	66.520485	675.754456	70.207443	-0.11356	0	0.348673	-1.10E-05	0.514554	-5.00E-06
3.918	0	0	0	0.2	0	-0.3	0	0	0	66.759811	669.259277	68.248695	-0.113473	0	0.347449	-1.10E-05	0.43946	-6.00E-06
3.919	0	0	0	0.2	0	-0.3	0	0	0	66.439026	663.09967	68.092323	-0.113473	0	0.347225	-1.70E-05	0.43946	-6.00E-06
3.92	0	0	0	0.2	0	-0.3	0	0	0	66.82251	662.589722	67.54409	-0.113831	0	0.347225	-5.00E-06	0.442905	-5.00E-06
3.921	0	0	0	0.2	0	-0.3	0	0	0	66.436859	658.138428	65.66375	-0.113939	0	0.34726	-9.00E-06	0.463686	-4.00E-06
3.922	0	0	0	0.2	0	-0.3	0	0	0	66.271057	655.732239	65.429001	-0.114	0	0.34726	-9.00E-06	0.463686	-4.00E-06
3.923	0	0	0	0.2	0	-0.3	0	0	0	66.271057	652.671143	64.567329	-0.114104	0	0.346987	-1.30E-05	0.463686	-4.00E-06
3.924	0	0	0	0.2	0	-0.3	0	0	0	66.344582	642.356934	64.489075	-0.114149	0	0.346938	-1.30E-05	0.431945	-4.00E-06
3.925	0	0	0	0.2	0	-0.3	0	0	0	66.344582	637.213257	64.410904	-0.114524	0	0.346938	-1.00E-05	0.431945	-5.00E-06
3.926	0	0	0	0.2	0	-0.3	0	0	0	66.344582	636.907043	62.295654	-0.114627	0	0.346938	-1.00E-05	0.431945	-5.00E-06
3.927	0	0	0	0.2	0	-0.3	0	0	0	66.188156	632.950989	61.199188	-0.114627	0	0.346176	-1.50E-05	0.410192	-5.00E-06
3.928	0	0	0	0.2	0	-0.3	0	0	0	65.790245	632.950989	60.493771	-0.114538	0	0.345575	-1.50E-05	0.377374	-4.00E-06
3.929	0	0	0	0.2	0	-0.3	0	0	0	65.78952	631.926941	59.553722	-0.114538	0	0.345575	-1.00E-05	0.410192	-3.00E-06
3.93	0	0	0	0.2	0	-0.3	0	0	0	65.23951	625.758789	59.397224	-0.114889	0	0.345538	-1.00E-05	0.42024	-3.00E-06
3.931	0	0	0	0.2	0	-0.3	0	0	0	65.23951	620.985168	59.084064	-0.11514	0	0.345173	-1.00E-05	0.42024	-3.00E-06
3.932	0	0	0	0.2	0	-0.3	0	0	0	65.23951	620.964661	58.143818	-0.11514	0	0.345059	1.00E-06	0.410758	-4.00E-06
3.933	0	0	0	0.2	0	-0.3	0	0	0	65.160942	619.601501	57.830494	-0.115476	0	0.344772	1.00E-06	0.389861	-5.00E-06
3.934	0	0	0	0.2	0	-0.3	0	0	0	64.219513	617.225098	55.636917	-0.115788	0	0.344049	-1.20E-05	0.384139	-5.00E-06
3.935	0	0	0	0.2	0	-0.3	0	0	0	64.219513	611.914062	55.323555	-0.115788	0	0.343357	-1.20E-05	0.366339	-5.00E-06
3.936	0	0	0	0.2	0	-0.3	0	0	0	63.905224	605.392639	55.323555	-0.115986	0	0.343332	-1.20E-05	0.341281	-4.00E-06
3.937	0	0	0	0.2	0	-0.3	0	0	0	65.388718	601.624451	55.323555	-0.116371	0	0.343332	-1.20E-05	0.341281	-3.00E-06
3.938	0	0	0	0.2	0	-0.3	0	0	0	65.388718	600.596069	54.6189	-0.116371	0	0.34338	-1.20E-05	0.341281	-3.00E-06
3.939	0	0	0	0.2	0	-0.3	0	0	0	65.388718	597.671143	53.835396	-0.116263	0	0.34338	-1.00E-05	0.357205	-4.00E-06
3.94	0	0	0	0.2	0	-0.3	0	0	0	64.914398	592.872803	52.817017	-0.116263	0	0.343039	-2.00E-06	0.294695	-4.00E-06
3.941	0	0	0	0.2	0	-0.3	0	0	0	64.130119	589.815918	52.503857	-0.116698	0	0.343039	-2.00E-06	0.357205	-4.00E-06
3.942	0	0	0	0.2	0	-0.3	0	0	0	64.130119	589.459534	51.798717	-0.116853	0	0.342259	-2.00E-06	0.395399	-4.00E-06
3.943	0	0	0	0.2	0	-0.3	0	0	0	64.28437	583.984131	51.720631	-0.116698	0	0.343	-1.00E-05	0.40754	-4.00E-06
3.944	0	0	0	0.2	0	-0.3	0	0	0	64.675797	580.704712	51.642384	-0.116653	0	0.342948	-6.00E-06	0.478133	-3.00E-06
3.945	0	0	0	0.2	0	-0.3	0	0	0	64.675797	578.478699	51.328938	-0.116653	0	0.342948	-1.00E-05	0.478133	-3.00E-06
3.946	0	0	0	0.2	0	-0.3	0	0	0	63.890076	576.779541	49.448803	-0.116907	0	0.342314	-1.30E-05	0.426476	-3.00E-06
3.947	0	0	0	0.2	0	-0.3	0	0	0	63.576504	572.505737	49.135441	-0.116967	0	0.341677	-1.30E-05	0.402545	-3.00E-06
3.948	0	0	0	0.2	0	-0.3	0	0	0	63.420078	571.635193	47.725086	-0.117446	0	0.341552	-1.60E-05	0.354227	-3.00E-06
3.949	0	0	0	0.2	0	-0.3	0	0	0	63.182201	568.559082	47.177055	-0.117508	0	0.341677	-1.60E-05	0.402545	-1.00E-06
3.95	0	0	0	0.2	0	-0.3	0	0	0	63.182201	566.155945	46.47168	-0.117508	0	0.3415	-1.60E-05	0.336468	-2.00E-06
3.951	0	0	0	0.2	0	-0.3	0	0	0	63.182201	565.480164	46.47168	-0.117749	0	0.3415	-9.00E-06	0.346588	-2.00E-06
3.952	0	0	0	0.2	0	-0.3	0	0	0	62.397198	559.472534	45.453503	-0.117777	0	0.340893	-5.00E-06	0.346588	-2.00E-06
3.953	0	0	0	0.2	0	-0.3	0	0	0	62.167248	559.472534	45.218472	-0.117878	0	0.340162	-5.00E-06	0.448896	-3.00E-06
3.954	0	0	0	0.2	0	-0.3	0	0	0	61.145084	561.390259	43.651501	-0.118372	0	0.340162	-1.00E-06	0.448896	-1.00E-06
3.955	0	0	0	0.2	0	-0.3	0	0	0	61.145084	561.390259	43.651501	-0.118372	0	0.340643	1.00E-06	0.448896	-3.00E-06
3.956	0	0	0	0.2	0	-0.3	0	0	0	62.00938	551.072571	43.181316	-0.11807	0	0.340674	1.00E-06	0.46278	-3.00E-06
3.957	0	0	0	0.2	0	-0.3	0	0	0	62.00938	546.602417	42.319843	-0.11807	0	0.340674	-1.00E-06	0.46278	-5.00E-06
3.958	0	0	0	0.2	0	-0.3	0	0	0	62.083626	545.77356	42.319843	-0.118291	0	0.339946	-8.00E-06	0.46278	-3.00E-06
3.959	0	0	0	0.2	0	-0.3	0	0	0	61.378639	543.566406	42.319798	-0.118416	0	0.339664	-9.00E-06	0.531836	-3.00E-06
3.96	0	0	0	0.2	0	-0.3	0	0	0	61.225101	542.173462	41.144642	-0.118926	0	0.339946	-1.50E-05	0.531836	-3.00E-06
3.961	0	0	0	0.2	0	-0.3	0	0	0	61.141476	542.173462	40.831318	-0.118945	0	0.340122	-1.30E-05	0.426653	-3.00E-06
3.962	0	0	0	0.2	0	-0.3	0	0	0	60.669319	536.845886	40.753109	-0.118969	0	0.340122	-1.30E-05	0.416013	-4.00E-06
3.963	0	0	0	0.2	0	-0.3	0	0	0	60.669319	536.702454	39.969601	-0.118969	0	0.339382	-1.30E-05	0.386792	-3.00E-06
3.964	0	0	0	0.2	0	-0.3	0	0	0	60.827908	530.50116	39.499458	-0.118774	0	0.338699	-1.30E-05	0.416013	-3.00E-06
3.965	0	0	0	0.2	0	-0.3	0	0	0	60.827908	530.50116	39.186256	-0.118774	0	0.338699	-1.10E-05	0.386792	-3.00E-06
3.966	0	0	0	0.2	0	-0.3	0	0	0	59.26223	533.795654	37.775826	-0.119795	0	0.338699	-1.10E-05	0.454291	-2.00E-06
3.967	0	0	0	0.2	0	-0.3	0	0	0	59.26223	533.795654	37.46246	-0.119795	0	0.338496	-1.20E-05	0.320329	-3.00E-06
3.968	0	0	0	0.2	0	-0.3	0	0	0	59.187267	526.930542	37.775826	-0.119563	0	0.337932	-1.20E-05	0.454291	-3.00E-06
3.969	0	0	0	0.2	0	-0.3	0	0	0	59.10725	526.930542	36.365395	-0.119472	0	0.337836	-1.60E-05	0.406252	-3.00E-06
3.97	0	0	0	0.2	0	-0.3	0	0	0	59.10725	526.603455	36.130642	-0.119563	0	0.337429	-7.00E-06	0.47729	-2.00E-06
